<svg width="32" height="32" viewBox="0 0 32 32" xmlns="http://www.w3.org/2000/svg" xmlns:xlink="http://www.w3.org/1999/xlink" id="Tools_Technology_headset_16" overflow="hidden"><style>
.MsftOfcResponsive_Fill_c6c6c6 {
 fill:#C6C6C6; 
}
</style>
<path d="M13.987 27.969C13.8511 27.9688 13.7152 27.9618 13.58 27.948 11.3822 27.7242 9.78202 25.7611 10.0058 23.5633 10.2296 21.3656 12.1927 19.7654 14.3905 19.9892 16.0196 20.1551 17.3831 21.2972 17.832 22.872 19.6735 22.4723 20.9904 20.8473 21 18.963L21 8.963C21 5.09701 17.866 1.963 14 1.963 10.134 1.963 7 5.09701 7 8.963L7 17.963 5 17.963C2.23858 17.963 0 15.7244 0 12.963 -8.88178e-16 10.2016 2.23858 7.963 5 7.963L5.06 7.963C5.63537 3.02585 10.1041-0.510072 15.0413 0.0652962 19.1865 0.548378 22.4559 3.81775 22.939 7.963L23 7.963C25.7614 7.963 28 10.2016 28 12.963 28 15.7244 25.7614 17.963 23 17.963L23 18.963C22.987 21.9272 20.8113 24.4378 17.879 24.872 17.4662 26.6879 15.8492 27.9746 13.987 27.969ZM14 21.962C12.8954 21.962 12 22.8574 12 23.962 12 25.0666 12.8954 25.962 14 25.962 15.1046 25.962 16 25.0666 16 23.962 16 22.8574 15.1046 21.962 14 21.962ZM23 9.962 23 15.962C24.6569 15.962 26 14.6189 26 12.962 26 11.3051 24.6569 9.962 23 9.962ZM5 9.962C3.34315 9.962 2 11.3051 2 12.962 2 14.6189 3.34315 15.962 5 15.962Z" id="Fill" class="MsftOfcResponsive_Fill_c6c6c6" fill="#C6C6C6" transform="translate(2 2.037)"/></svg>