<svg width="32" height="32" viewBox="0 0 32 32" xmlns="http://www.w3.org/2000/svg" xmlns:xlink="http://www.w3.org/1999/xlink" id="Actions_Operations_branch_16" overflow="hidden"><style>
.MsftOfcResponsive_Fill_c6c6c6 {
 fill:#C6C6C6; 
}
</style>
<path d="M24.018 19.988C22.2008 19.9865 20.6137 18.7586 20.156 17L16.015 17C13.257 16.9918 11.0232 14.758 11.015 12L11.015 8C11.0122 6.34429 9.67071 5.00275 8.015 5L7.873 5C7.32107 7.13908 5.13958 8.42572 3.0005 7.8738 0.861414 7.32187-0.425228 5.14037 0.1267 3.00129 0.536326 1.41372 1.87329 0.236884 3.5 0.032 3.66585 0.0110118 3.83283 0.000324662 4 1.64211e-08 5.82288 0.00135972 7.41428 1.235 7.87 3L20.156 3C20.6117 1.235 22.2031 0.0013597 24.026-2.66454e-15 26.2351-3.55271e-15 28.026 1.79086 28.026 4 28.026 6.20914 26.2352 8.00003 24.0261 8.00006 22.202 8.00009 20.609 6.76613 20.153 5L11.99 5C12.6484 5.86221 13.0085 6.91517 13.016 8L13.016 12C13.016 13.6569 14.3591 15 16.016 15L20.158 15C20.7103 12.8673 22.8869 11.5861 25.0196 12.1384 27.1523 12.6907 28.4335 14.8673 27.8812 17 27.4255 18.7601 25.8372 19.9893 24.019 19.989ZM24.018 14C22.9134 14 22.018 14.8954 22.018 16 22.018 17.1046 22.9134 18 24.018 18 25.1226 18 26.018 17.1046 26.018 16 26.018 14.8954 25.1226 14 24.018 14 24.0173 14 24.0167 14 24.016 14ZM24.018 2C22.9134 2 22.018 2.89543 22.018 4 22.018 5.10457 22.9134 6 24.018 6 25.1226 6 26.018 5.10457 26.018 4 26.018 2.89543 25.1226 2 24.018 2 24.0173 2 24.0167 2 24.016 2ZM4.018 2C2.91343 2 2.018 2.89543 2.018 4 2.018 5.10457 2.91343 6 4.018 6 5.12257 6 6.018 5.10457 6.018 4 6.018 2.89543 5.12257 2 4.018 2 4.01733 2 4.01667 2 4.016 2Z" id="Fill" class="MsftOfcResponsive_Fill_c6c6c6" fill="#C6C6C6" transform="translate(1.985 6)"/></svg>