<svg width="17.5" height="17.5" viewBox="0 0 17.5 17.5" xmlns="http://www.w3.org/2000/svg" xmlns:xlink="http://www.w3.org/1999/xlink" overflow="hidden"><path d="M10.75 2C5.91751 2 2 5.91751 2 10.75 2 15.5825 5.91751 19.5 10.75 19.5 15.5825 19.5 19.5 15.5825 19.5 10.75 19.4857 5.92344 15.5766 2.01428 10.75 2ZM10.063 5.75 11.438 5.75 11.438 12.625 10.063 12.625 10.063 5.75ZM10.751 16.375C10.233 16.375 9.813 15.955 9.813 15.437 9.813 14.919 10.233 14.499 10.751 14.499 11.269 14.499 11.689 14.919 11.689 15.437 11.689 15.4373 11.689 15.4377 11.689 15.438 11.6763 15.9509 11.2629 16.3634 10.75 16.375Z" id="Compound_Path" fill="#F1C21B" transform="translate(-2 -2)"/></svg>