<svg width="15.94" height="15.94" viewBox="0 0 15.94 15.94" xmlns="http://www.w3.org/2000/svg" xmlns:xlink="http://www.w3.org/1999/xlink" overflow="hidden"><defs></defs><g><g><g><path d="M4.64 15.94 0 15.94 0 11.3 10.87 0.43C11.41-0.13 12.29-0.15 12.85 0.38 12.87 0.39 12.88 0.41 12.9 0.43L15.51 3.04C16.07 3.58 16.09 4.47 15.55 5.03 15.54 5.04 15.52 5.06 15.51 5.07L4.64 15.94 4.64 15.94 4.64 15.94ZM8.69 4.64 8.69 4.64 1.45 11.88 1.45 14.49 4.06 14.49 11.3 7.25 8.69 4.64 8.69 4.64 8.69 4.64ZM11.88 1.45 11.88 1.45 9.71 3.62 12.32 6.23 14.49 4.06 11.88 1.45 11.88 1.45 11.88 1.45Z" fill="#FFFFFF"/></g></g></g></svg>